<svg id="Layer_1" data-name="Layer 1" xmlns="http://www.w3.org/2000/svg" viewBox="0 0 24 23.2"><path d="M23.93,6.82A8.19,8.19,0,0,0,23.38,4,5.78,5.78,0,0,0,22,2,5.92,5.92,0,0,0,19.86.61,9.31,9.31,0,0,0,17,.07C15.67,0,15.26,0,12,0S8.34,0,7.06.07A8.83,8.83,0,0,0,4.14.61,5.88,5.88,0,0,0,2,2,5.7,5.7,0,0,0,.63,4,8.26,8.26,0,0,0,.08,6.82C0,8.06,0,8.45,0,11.6s0,3.55.07,4.78A8.23,8.23,0,0,0,.63,19.2,5.65,5.65,0,0,0,2,21.26a6,6,0,0,0,2.12,1.33,8.82,8.82,0,0,0,2.91.54c1.28.06,1.69.07,5,.07s3.66,0,4.94-.07a8.83,8.83,0,0,0,2.92-.54,6,6,0,0,0,3.51-3.39,8.48,8.48,0,0,0,.56-2.82c.05-1.23.07-1.63.07-4.78S24,8.06,23.93,6.82Zm-2.16,9.47a6.28,6.28,0,0,1-.41,2.16,3.9,3.9,0,0,1-2.28,2.2,6.76,6.76,0,0,1-2.23.4c-1.26.05-1.64.07-4.84.07s-3.59,0-4.85-.07a6.76,6.76,0,0,1-2.23-.4,3.76,3.76,0,0,1-1.38-.87,3.62,3.62,0,0,1-.89-1.33,6,6,0,0,1-.41-2.15c-.06-1.23-.07-1.59-.07-4.69s0-3.47.07-4.68a6,6,0,0,1,.41-2.16,3.53,3.53,0,0,1,.9-1.33,3.76,3.76,0,0,1,1.38-.87,7.1,7.1,0,0,1,2.22-.39c1.27-.06,1.65-.07,4.85-.07s3.59,0,4.85.07a7.19,7.19,0,0,1,2.23.39,3.65,3.65,0,0,1,1.37.87,3.61,3.61,0,0,1,.9,1.33,6.33,6.33,0,0,1,.41,2.16c.06,1.22.07,1.59.07,4.68S21.83,15.07,21.77,16.29Z"/><path d="M12,5.64a6.06,6.06,0,0,0-6.16,6,6.06,6.06,0,0,0,6.16,6,6.07,6.07,0,0,0,6.17-6A6.07,6.07,0,0,0,12,5.64Zm0,9.83A3.93,3.93,0,0,1,8,11.6a3.93,3.93,0,0,1,4-3.86,3.93,3.93,0,0,1,4,3.86A3.93,3.93,0,0,1,12,15.47Z"/><path d="M19.85,5.41A1.44,1.44,0,1,1,18.41,4,1.41,1.41,0,0,1,19.85,5.41Z"/></svg>