<svg id="Layer_1" data-name="Layer 1" xmlns="http://www.w3.org/2000/svg" viewBox="0 0 10.62 17"><title>Artboard 1</title><path d="M9.79,4.31A4.39,4.39,0,0,1,5.31,8.6,4.39,4.39,0,0,1,.84,4.31,4.4,4.4,0,0,1,5.31,0,4.4,4.4,0,0,1,9.79,4.31Zm-2.28,0a2.17,2.17,0,0,0-2.2-2.13,2.17,2.17,0,0,0-2.2,2.13,2.16,2.16,0,0,0,2.2,2.11A2.16,2.16,0,0,0,7.51,4.31ZM1.34,11.08C.22,10.39-.28,10,.16,9.12c.25-.48,1-.89,1.88-.19a5.72,5.72,0,0,0,3.27,1,5.77,5.77,0,0,0,3.28-1c.93-.7,1.62-.29,1.88.19.43.86-.06,1.26-1.19,2h0a8,8,0,0,1-3.1.89l1.87,1.79L9.53,15.2c1,.94-.6,2.43-1.58,1.51-.64-.63-1.59-1.54-2.58-2.49l0-.05L2.69,16.71c-1,.91-2.54-.58-1.57-1.52C4,12.4,4.45,12,4.47,12h0A7.91,7.91,0,0,1,1.34,11.08Z" fill-rule="evenodd"/></svg>