<svg id="Layer_1" data-name="Layer 1" xmlns="http://www.w3.org/2000/svg" viewBox="0 0 19 15"><title>Artboard 1</title><path d="M17.05,3.74a7.73,7.73,0,0,0,1.95-2h0a8.14,8.14,0,0,1-2.24.59A3.8,3.8,0,0,0,18.47.28,7.73,7.73,0,0,1,16,1.2,4,4,0,0,0,13.15,0,3.84,3.84,0,0,0,9.26,3.79a4,4,0,0,0,.09.86,11.16,11.16,0,0,1-8-4A3.78,3.78,0,0,0,.79,2.6,3.77,3.77,0,0,0,2.52,5.75,3.88,3.88,0,0,1,.76,5.28v0A3.83,3.83,0,0,0,3.88,9a3.75,3.75,0,0,1-1,.13,3.64,3.64,0,0,1-.74-.07,3.94,3.94,0,0,0,3.64,2.64A8,8,0,0,1,.93,13.35a7.15,7.15,0,0,1-.93,0A11.23,11.23,0,0,0,6,15,10.84,10.84,0,0,0,17.05,3.74Z"/></svg>