<svg id="Layer_1" data-name="Layer 1" xmlns="http://www.w3.org/2000/svg" viewBox="0 0 20 12"><title>Artboard 1</title><path d="M19.82,10.7a9.16,9.16,0,0,0-2-2.41c-1.68-1.64-1.45-1.37.56-4.2C19.63,2.37,20.12,1.32,20,.87s-1-.32-1-.32l-3,0a.65.65,0,0,0-.38.07.81.81,0,0,0-.27.34,19.85,19.85,0,0,1-1.11,2.47C12.81,5.84,12.27,6,12.05,5.82c-.5-.35-.38-1.4-.38-2.14C11.67,1.37,12,.4,11,.15A5,5,0,0,0,9.62,0a6.35,6.35,0,0,0-2.5.27c-.34.18-.6.57-.44.59a1.35,1.35,0,0,1,.89.47,3.26,3.26,0,0,1,.29,1.43S8,5.49,7.45,5.83c-.41.23-1-.24-2.16-2.41A20.5,20.5,0,0,1,4.22,1.08.92.92,0,0,0,4,.73a1.21,1.21,0,0,0-.46-.2L.65.55S.22.56.07.76s0,.53,0,.53S2.29,6.8,4.82,9.57a6.69,6.69,0,0,0,5,2.38H11a1,1,0,0,0,.55-.25.93.93,0,0,0,.16-.55s0-1.69.72-1.94,1.68,1.63,2.68,2.35a1.81,1.81,0,0,0,1.33.43l2.67,0S20.48,11.86,19.82,10.7Z"/></svg>