<svg id="Layer_1" data-name="Layer 1" xmlns="http://www.w3.org/2000/svg" viewBox="0 0 75 47.22"><title>Artboard 1</title><rect y="3.24" width="68.98" height="43.98" fill="red"/><path d="M24.31,24.44a6.85,6.85,0,0,1-6.86,6.86A6.67,6.67,0,0,1,14,30.37v6.07H10.65V17.59h3.42v.93a6.7,6.7,0,0,1,3.43-.93A6.83,6.83,0,0,1,24.31,24.44Zm-3.38,0a3.43,3.43,0,1,0-3.43,3.43A3.42,3.42,0,0,0,20.93,24.44Z" fill="#fff"/><path d="M43.19,17.59V31.25H39.77V21h-.14l-5,4.95-5-4.95h-.14V31.3H26.11V17.59h5l3.57,3.57,3.51-3.57Z" fill="#fff"/><path d="M59.07,27.87a8.58,8.58,0,0,1-8.56,8.57V33a5,5,0,0,0,3.8-1.71H45.37V17.59H48.8V27.87h5.14V17.59h3.42V27.87Z" fill="#fff"/><circle cx="66.44" cy="8.56" r="8.56" fill="#39a935"/></svg>