<?xml version="1.0" standalone="no"?>
<!DOCTYPE svg PUBLIC "-//W3C//DTD SVG 20010904//EN"
 "http://www.w3.org/TR/2001/REC-SVG-20010904/DTD/svg10.dtd">
<svg version="1.0" xmlns="http://www.w3.org/2000/svg"
 width="1200.000000pt" height="1200.000000pt" viewBox="0 0 1200.000000 1200.000000"
 preserveAspectRatio="xMidYMid meet">
<metadata>
Created by potrace 1.11, written by Peter Selinger 2001-2013
</metadata>
<g transform="translate(0.000000,1200.000000) scale(0.100000,-0.100000)"
fill="#000000" stroke="none">
<path d="M10540 9774 c-294 -35 -500 -110 -703 -255 -77 -55 -267 -234 -267
-251 0 -4 -2153 -8 -4785 -8 l-4785 0 0 -3520 0 -3520 5520 0 5520 0 0 2444 0
2443 63 23 c383 139 689 457 822 853 237 709 -153 1483 -869 1722 -150 50
-396 83 -516 69z m-8290 -2884 c0 -38 2 -70 4 -70 2 0 35 15 72 34 152 74 296
106 473 106 298 -1 558 -108 766 -315 374 -372 430 -960 132 -1400 -59 -86
-187 -216 -273 -275 -101 -70 -243 -135 -361 -167 -88 -24 -115 -27 -273 -27
-157 0 -185 3 -272 27 -53 14 -136 44 -184 66 -48 23 -88 41 -90 41 -2 0 -4
-216 -4 -480 l0 -480 -270 0 -270 0 0 1505 0 1505 275 0 275 0 0 -70z m3018
-212 l284 -283 276 283 277 282 403 0 402 0 0 -1090 0 -1090 -275 0 -275 0 0
821 c0 524 -3 819 -10 817 -10 -3 -181 -169 -562 -547 l-247 -245 -400 397
c-220 218 -405 397 -410 397 -8 0 -11 -249 -11 -825 l0 -825 -270 0 -270 0 0
1095 0 1095 402 0 403 0 283 -282z m2542 -538 l0 -820 410 0 410 0 0 820 0
820 275 0 275 0 0 -820 0 -820 135 0 135 0 0 -52 c0 -186 -78 -456 -182 -633
-234 -398 -651 -659 -1090 -682 l-98 -6 0 275 0 275 78 6 c107 8 182 29 287
82 84 42 235 155 235 176 0 5 -284 9 -710 9 l-710 0 0 1095 0 1095 275 0 275
0 0 -820z"/>
<path d="M2720 6410 c-122 -19 -254 -90 -330 -178 -192 -225 -182 -542 24
-747 113 -112 237 -165 388 -165 335 0 594 307 538 639 -48 288 -333 495 -620
451z"/>
</g>
</svg>
